<svg id="图层_1" data-name="图层 1" xmlns="http://www.w3.org/2000/svg" viewBox="0 0 20 20"><defs><style>.cls-1{fill:#59b9e2;}</style></defs><title>未标题-1</title><path class="cls-1" d="M14.79,1.89l-3.68,3.6L4.76,3.74A1.32,1.32,0,0,0,3.57,4L2.27,5.31a.76.76,0,0,0,.16,1.25L7.22,9.29l-2.36,2.3-2.37,0a.48.48,0,0,0-.32.13L.87,13a.73.73,0,0,0,.21,1.23L4,15.57l1.29,3a.74.74,0,0,0,1.23.24l1.3-1.27A.45.45,0,0,0,8,17.18l0-2.37,2.36-2.3L13,17.36a.78.78,0,0,0,1.25.19l1.3-1.27a1.32,1.32,0,0,0,.33-1.18L14.26,8.7,16,7l0,0,1.94-1.89a2.25,2.25,0,0,0-3.15-3.22Zm2.52,2.58L15.37,6.36h0L13.45,8.24a.45.45,0,0,0-.12.21h0a.34.34,0,0,0,0,.2L15,15.32a.48.48,0,0,1-.09.32L13.7,16.8l-2.83-5.24a.45.45,0,0,0-.61-.19l-.1.08L7.24,14.3a.44.44,0,0,0-.13.31l0,2.37-1,1L4.76,15.05a.45.45,0,0,0-.22-.23l-2.9-1.35,1-1,2.37,0a.44.44,0,0,0,.32-.13L8.27,9.51a.44.44,0,0,0,0-.63.39.39,0,0,0-.1-.08L3,5.85,4.2,4.68a.5.5,0,0,1,.32-.08l6.6,1.82a.45.45,0,0,0,.43-.11l3.87-3.77a1.34,1.34,0,0,1,1.91,0h0a1.36,1.36,0,0,1,0,1.91Z"/></svg>