<svg id="图层_1" data-name="图层 1" xmlns="http://www.w3.org/2000/svg" viewBox="0 0 20 14"><defs><style>.cls-1{fill:#59b9e2;}</style></defs><title>未标题-1</title><path class="cls-1" d="M6.17.32A3.89,3.89,0,0,0,4.51,7.73,5.89,5.89,0,0,0,.28,13.37a.31.31,0,0,0,.62,0A5.28,5.28,0,0,1,6.17,8.1a3.89,3.89,0,1,0,0-7.78Zm0,7.17A3.28,3.28,0,1,1,9.44,4.21,3.28,3.28,0,0,1,6.17,7.49Z"/><path class="cls-1" d="M9.73,8.69a.31.31,0,0,0-.43.06.3.3,0,0,0,.06.43,5.24,5.24,0,0,1,2.07,4.19.31.31,0,0,0,.62,0A5.86,5.86,0,0,0,9.73,8.69Z"/><rect class="cls-1" x="13.24" y="2.13" width="6" height="0.96" rx="0.48" ry="0.48"/><rect class="cls-1" x="13.24" y="5.86" width="6" height="0.96" rx="0.48" ry="0.48"/><rect class="cls-1" x="13.24" y="9.95" width="6" height="0.96" rx="0.48" ry="0.48"/></svg>