<?xml version="1.0" encoding="utf-8"?>
<!-- Generator: Adobe Illustrator 22.0.1, SVG Export Plug-In . SVG Version: 6.00 Build 0)  -->
<svg version="1.1" id="图层_1" xmlns="http://www.w3.org/2000/svg" xmlns:xlink="http://www.w3.org/1999/xlink" x="0px" y="0px"
	 viewBox="0 0 19 15" style="enable-background:new 0 0 19 15;" xml:space="preserve">
<style type="text/css">
	.st0{fill:#59B9E2;}
	.st1{fill:#E9EDF5;}
	.st2{fill:none;}
</style>
<path class="st1" d="M16.1,1.1c0.8,0,1.5,0.7,1.5,1.5s-0.7,1.5-1.5,1.5s-1.5-0.7-1.5-1.5S15.2,1.1,16.1,1.1 M16.1,0.1
	c-1.4,0-2.5,1.1-2.5,2.5s1.1,2.5,2.5,2.5c1.4,0,2.5-1.1,2.5-2.5S17.5,0.1,16.1,0.1L16.1,0.1z"/>
<path class="st1" d="M3,10.8c0.8,0,1.5,0.7,1.5,1.5S3.9,13.8,3,13.8s-1.5-0.7-1.5-1.5S2.2,10.8,3,10.8 M3,9.8
	c-1.4,0-2.5,1.1-2.5,2.5s1.1,2.5,2.5,2.5s2.5-1.1,2.5-2.5S4.4,9.8,3,9.8L3,9.8z"/>
<path class="st1" d="M13,2.8h-2.6c-0.3,0-0.5-0.2-0.5-0.5s0.2-0.5,0.5-0.5H13c0.3,0,0.5,0.2,0.5,0.5S13.2,2.8,13,2.8z"/>
<path class="st1" d="M10.7,13.3c-0.2,0-0.4,0-0.4,0l-5.1,0c-0.3,0-0.5-0.2-0.5-0.5s0.2-0.5,0.5-0.5h5.2c0.1,0,1.3,0.1,2.1-0.6
	c0.4-0.4,0.6-0.9,0.6-1.6c0-0.6-0.2-1-0.6-1.4C11.6,7.9,9.9,7.9,9.2,8C9.1,8,7,8.1,5.8,7C5.2,6.4,4.9,5.7,4.9,4.8
	c0-0.9,0.3-1.6,0.9-2.2c1.3-1.1,3.4-0.9,3.4-0.9c0.3,0,0.5,0.3,0.4,0.6c0,0.3-0.3,0.5-0.6,0.4c0,0-1.8-0.2-2.7,0.6
	C6.1,3.7,5.9,4.2,5.9,4.8c0,0.6,0.2,1.1,0.6,1.4C7.4,7.1,9.1,7,9.2,7c0.1,0,2.6-0.3,4,1c0.6,0.5,0.9,1.2,0.9,2.1
	c0,1-0.3,1.8-0.9,2.4C12.3,13.2,11.2,13.3,10.7,13.3z"/>
</svg>
