<svg id="图层_1" data-name="图层 1" xmlns="http://www.w3.org/2000/svg" viewBox="0 0 20 20"><defs><style>.cls-1{fill:#59b9e2;}</style></defs><title>未标题-1</title><path class="cls-1" d="M19.8,9.9l-9.35-9A.62.62,0,0,0,10,.68h0a.62.62,0,0,0-.44.18L.2,9.9a.63.63,0,0,0,0,.9.65.65,0,0,0,.91,0L2.37,9.58v7.88a1.85,1.85,0,0,0,1.85,1.85H7.5a.63.63,0,0,0,.57-.63h0V17.53s0,0,0-.06V14.18h4.12a.61.61,0,1,0,0-1.21H7.39a.6.6,0,0,0-.61.6V18H4.22a.57.57,0,0,1-.57-.57V8.34L10,2.21,16,8h0v9.49a.56.56,0,0,1-.56.57H12.83a.64.64,0,1,0,0,1.28h2.56a1.84,1.84,0,0,0,1.84-1.85V9.19l1.68,1.63a.65.65,0,0,0,.91,0A.63.63,0,0,0,19.8,9.9Z"/></svg>