<?xml version="1.0" encoding="utf-8"?>
<!-- Generator: Adobe Illustrator 22.0.1, SVG Export Plug-In . SVG Version: 6.00 Build 0)  -->
<svg version="1.1" id="图层_1" xmlns="http://www.w3.org/2000/svg" xmlns:xlink="http://www.w3.org/1999/xlink" x="0px" y="0px"
	 viewBox="0 0 16 16" style="enable-background:new 0 0 16 16;" xml:space="preserve">
<style type="text/css">
	.st0{fill:#59B9E2;}
	.st1{fill:#E9EDF5;}
	.st2{fill:none;}
</style>
<g>
	<path class="st1" d="M15.4,16H0.6c-0.3,0-0.5-0.2-0.5-0.5S0.3,15,0.6,15h14.8c0.3,0,0.5,0.2,0.5,0.5S15.7,16,15.4,16z"/>
</g>
<path class="st1" d="M12.3,1.1L9.5,3.8L4.6,2.5c-0.3-0.1-0.7,0-0.9,0.2l-1,1C2.4,4,2.4,4.4,2.8,4.7l3.7,2.1L4.7,8.5l-1.8,0
	c-0.1,0-0.2,0-0.2,0.1l-1,1c-0.3,0.3-0.2,0.8,0.2,0.9L4,11.6l1,2.3c0.2,0.4,0.6,0.5,0.9,0.2l1-1C7,13,7.1,12.9,7.1,12.8l0-1.8
	l1.8-1.8l2,3.7c0.2,0.4,0.7,0.4,1,0.1l1-1c0.2-0.2,0.3-0.6,0.3-0.9l-1.2-4.9L13.2,5c0,0,0,0,0,0l1.5-1.5c0.7-0.7,0.7-1.8,0-2.5
	C14.1,0.4,13,0.4,12.3,1.1L12.3,1.1z M14.3,3l-1.5,1.5c0,0,0,0,0,0l-1.5,1.4c0,0-0.1,0.1-0.1,0.2c0,0,0,0,0,0c0,0,0,0,0,0
	c0,0.1,0,0.1,0,0.2l1.3,5.1c0,0.1,0,0.2-0.1,0.2l-0.9,0.9l-2.2-4C9.2,8.3,9,8.3,8.8,8.4c0,0-0.1,0-0.1,0.1l-2.2,2.2
	c-0.1,0.1-0.1,0.2-0.1,0.2l0,1.8l-0.8,0.8l-1-2.3c0-0.1-0.1-0.1-0.2-0.2l-2.2-1L3,9.2l1.8,0c0.1,0,0.2,0,0.2-0.1l2.2-2.2
	c0.1-0.1,0.1-0.4,0-0.5c0,0,0,0-0.1-0.1l-4-2.3l0.9-0.9c0,0,0.2-0.1,0.2-0.1l5.1,1.4c0.1,0,0.2,0,0.3-0.1l3-2.9
	c0.4-0.4,1.1-0.4,1.5,0c0,0,0,0,0,0C14.7,2,14.7,2.6,14.3,3L14.3,3z"/>
</svg>
