<svg id="图层_1" data-name="图层 1" xmlns="http://www.w3.org/2000/svg" viewBox="0 0 20 20"><defs><style>.cls-1{fill:#59b9e2;}</style></defs><title>未标题-1</title><path class="cls-1" d="M17,9a.49.49,0,0,0-.5.48h0v8.24a1,1,0,0,1-1,1H2.33a1,1,0,0,1-1-1V2.28a1,1,0,0,1,1-1h8a.5.5,0,0,0,.5-.48.51.51,0,0,0-.5-.49h-8a2,2,0,0,0-2,1.93V17.72a2,2,0,0,0,2,1.93H15.44a2,2,0,0,0,2-1.93V9.51s0,0,0,0A.5.5,0,0,0,17,9ZM19.24.78a1.55,1.55,0,0,0-2.14,0L17,.89h0L8.43,9.08l-.79,2.79,2.92-.75L18.43,3.6h0l.81-.78a1.4,1.4,0,0,0,0-2ZM17.69,2.94,10,10.26l-1,.25.26-.93L17,2.26l.23.22ZM6.14,10.33h-2a.5.5,0,0,0-.5.48.49.49,0,0,0,.5.48h2a.49.49,0,0,0,.51-.48.51.51,0,0,0-.51-.48ZM3.43,14.51a.49.49,0,0,0,.51.48h9.9a.48.48,0,1,0,0-1H3.94A.49.49,0,0,0,3.43,14.51Z"/></svg>