<?xml version="1.0" encoding="utf-8"?>
<!-- Generator: Adobe Illustrator 22.0.1, SVG Export Plug-In . SVG Version: 6.00 Build 0)  -->
<svg version="1.1" id="图层_1" xmlns="http://www.w3.org/2000/svg" xmlns:xlink="http://www.w3.org/1999/xlink" x="0px" y="0px"
	 viewBox="0 0 19 19" style="enable-background:new 0 0 19 19;" xml:space="preserve">
<style type="text/css">
	.st0{fill:#59B9E2;}
	.st1{fill:#E9EDF5;}
	.st2{fill:none;}
</style>
<path class="st2" d="M12.8,2.9v3H6.2V3.1C3.6,4.3,1.8,7,1.8,10h3.5v6.5c1.2,0.8,2.7,1.3,4.3,1.3c1.5,0,2.9-0.4,4.1-1.2h-0.9V10h4.6
	C17.4,6.9,15.5,4.2,12.8,2.9z"/>
<path class="st1" d="M6.2,3.1V1.9C3.1,3.3,0.8,6.4,0.8,10h1C1.8,7,3.6,4.3,6.2,3.1z"/>
<path class="st1" d="M17.4,10h1c0-3.7-2.3-6.9-5.6-8.2v1.1C15.5,4.2,17.4,6.9,17.4,10z"/>
<path class="st1" d="M9.6,17.8c-1.6,0-3.1-0.5-4.3-1.3H5.3l-1.4,0.1c1.5,1.4,3.6,2.2,5.8,2.2s4.2-0.8,5.8-2.2h-1.7
	C12.5,17.4,11.1,17.8,9.6,17.8z"/>
<circle class="st1" cx="16.7" cy="13.5" r="2.2"/>
<circle class="st1" cx="2.4" cy="13.3" r="2.2"/>
<circle class="st1" cx="9.6" cy="2.3" r="2.2"/>
</svg>
