<svg id="图层_1" data-name="图层 1" xmlns="http://www.w3.org/2000/svg" viewBox="0 0 18 18"><defs><style>.cls-1{fill:#59b9e2;}</style></defs><title>未标题-1</title><path class="cls-1" d="M17.28,18H.72A.72.72,0,0,1,0,17.28H0V10.8a.72.72,0,0,1,.72-.72H2.16V1.44A.72.72,0,0,1,2.88.72H15.12a.72.72,0,0,1,.72.72h0v8.64h1.44a.72.72,0,0,1,.72.72v6.48a.72.72,0,0,1-.72.72ZM15.12,1.8a.36.36,0,0,0-.36-.36H3.24a.36.36,0,0,0-.36.36v8.28h2.9c0,.12,0,.24,0,.36A3.24,3.24,0,0,0,9,13.68H9a3.24,3.24,0,0,0,3.24-3.24h0c0-.12,0-.24,0-.36h2.9Zm2.16,9.36a.36.36,0,0,0-.36-.36h-4a4,4,0,0,1-7.88,0h-4a.36.36,0,0,0-.36.36v5.76a.36.36,0,0,0,.36.36H16.92a.36.36,0,0,0,.36-.36V11.16ZM8.11,8.48a.19.19,0,0,1-.26,0L7.6,8.22l-2-2a.19.19,0,0,1,0-.26l.26-.25a.18.18,0,0,1,.25,0L8,7.59l3.95-3.95a.18.18,0,0,1,.25,0l.26.25a.19.19,0,0,1,0,.26L8.11,8.48Z"/></svg>