<svg id="图层_1" data-name="图层 1" xmlns="http://www.w3.org/2000/svg" viewBox="0 0 20 20"><defs><style>.cls-1{fill:#e9edf5;}</style></defs><title>未标题-1</title><path class="cls-1" d="M10,.07a10,10,0,1,0,10,10A10,10,0,0,0,10,.07Zm0,19a9,9,0,1,1,9-9A9,9,0,0,1,10,19.07Z"/><path class="cls-1" d="M10,4.46a3.89,3.89,0,0,0-1.65,7.41,5.88,5.88,0,0,0-4.23,5.64.3.3,0,0,0,.31.3.29.29,0,0,0,.3-.3A5.28,5.28,0,0,1,10,12.24a3.89,3.89,0,0,0,0-7.78Zm0,7.16a3.28,3.28,0,1,1,3.28-3.27A3.27,3.27,0,0,1,10,11.62Z"/><path class="cls-1" d="M13.57,12.83a.31.31,0,0,0-.38.49,5.22,5.22,0,0,1,2.08,4.19.29.29,0,0,0,.3.3.3.3,0,0,0,.31-.3,5.84,5.84,0,0,0-2.31-4.68Z"/></svg>